HIERARCHY
ROOT joint_Root
{
	OFFSET 0.0 0.0 0.0
	CHANNELS 6 Xposition Yposition Zposition Zrotation Xrotation Yrotation 
	JOINT Hips
	{
		OFFSET 4.5925 91.4895 -427.239
		CHANNELS 6 Xposition Yposition Zposition Zrotation Xrotation Yrotation 
		JOINT Spine
		{
			OFFSET 15.7357 0.0 0.0
			CHANNELS 6 Xposition Yposition Zposition Zrotation Xrotation Yrotation 
			JOINT Chest
			{
				OFFSET 8.98455 -0.406207 0.0
				CHANNELS 6 Xposition Yposition Zposition Zrotation Xrotation Yrotation 
				JOINT Neck
				{
					OFFSET 16.3773 0.0 0.0
					CHANNELS 6 Xposition Yposition Zposition Zrotation Xrotation Yrotation 
					JOINT Head
					{
						OFFSET 6.45672 0.0 0.0
						CHANNELS 6 Xposition Yposition Zposition Zrotation Xrotation Yrotation 
						End Site
						{
							OFFSET 0.0 0.0 0.0
						}
					}
				}
				JOINT Shoulder_L
				{
					OFFSET 12.9942 -0.242716 4.98039
					CHANNELS 6 Xposition Yposition Zposition Zrotation Xrotation Yrotation 
					JOINT UpperArm_L
					{
						OFFSET 5.34809 0.0 0.0
						CHANNELS 6 Xposition Yposition Zposition Zrotation Xrotation Yrotation 
						JOINT LowerArm_L
						{
							OFFSET 24.3286 1.87007e-05 0.0
							CHANNELS 6 Xposition Yposition Zposition Zrotation Xrotation Yrotation 
							JOINT Hand_L
							{
								OFFSET 22.2916 0.0 0.0
								CHANNELS 6 Xposition Yposition Zposition Zrotation Xrotation Yrotation 
								End Site
								{
									OFFSET 0.0 0.0 0.0
								}
							}
						}
					}
				}
				JOINT Shoulder_R
				{
					OFFSET 12.9945 -0.242716 -4.98039
					CHANNELS 6 Xposition Yposition Zposition Zrotation Xrotation Yrotation 
					JOINT UpperArm_R
					{
						OFFSET -5.34813 0.0 0.0
						CHANNELS 6 Xposition Yposition Zposition Zrotation Xrotation Yrotation 
						JOINT LowerArm_R
						{
							OFFSET -24.3289 0.000322201 0.0
							CHANNELS 6 Xposition Yposition Zposition Zrotation Xrotation Yrotation 
							JOINT Hand_R
							{
								OFFSET -22.2915 -0.000108084 0.0
								CHANNELS 6 Xposition Yposition Zposition Zrotation Xrotation Yrotation 
								End Site
								{
									OFFSET 0.0 0.0 0.0
								}
							}
						}
					}
				}
			}
		}
		JOINT UpperLeg_L
		{
			OFFSET -2.19248 -6.46944 0.0
			CHANNELS 6 Xposition Yposition Zposition Zrotation Xrotation Yrotation 
			JOINT LowerLeg_L
			{
				OFFSET 39.0811 0.0 -1.23785e-05
				CHANNELS 6 Xposition Yposition Zposition Zrotation Xrotation Yrotation 
				JOINT Foot_L
				{
					OFFSET 40.9854 0.0 -1.26872e-05
					CHANNELS 6 Xposition Yposition Zposition Zrotation Xrotation Yrotation 
					JOINT Toes_L
					{
						OFFSET 11.7543 0.0 0.0
						CHANNELS 6 Xposition Yposition Zposition Zrotation Xrotation Yrotation 
						End Site
						{
							OFFSET 0.0 0.0 0.0
						}
					}
				}
			}
		}
		JOINT UpperLeg_R
		{
			OFFSET -2.19251 6.46944 0.0
			CHANNELS 6 Xposition Yposition Zposition Zrotation Xrotation Yrotation 
			JOINT LowerLeg_R
			{
				OFFSET -39.0811 -0.00228153 -0.0401928
				CHANNELS 6 Xposition Yposition Zposition Zrotation Xrotation Yrotation 
				JOINT Foot_R
				{
					OFFSET -40.9854 0.0 0.0
					CHANNELS 6 Xposition Yposition Zposition Zrotation Xrotation Yrotation 
					JOINT Toes_R
					{
						OFFSET -11.7543 0.0 0.0
						CHANNELS 6 Xposition Yposition Zposition Zrotation Xrotation Yrotation 
						End Site
						{
							OFFSET 0.0 0.0 0.0
						}
					}
				}
			}
		}
	}
}
MOTION
Frames:	6
Frame Time:	0.0333333
0.000000 0.000000 0.000000 0.000000 0.000000 -0.000000 133.161000 91.003000 -56.608900 87.809200 2.375550 -1.711150 15.735700 0.000005 -0.000001 64.630800 84.932800 -64.309600 8.984550 -0.406207 -0.000000 1.407890 -4.357730 0.695705 16.377300 -0.000001 -0.000001 -2.882180 -6.440680 -1.911490 6.456720 -0.000001 -0.000000 -8.549450 -5.336250 -7.611830 12.994200 -0.242716 4.980390 -90.727900 2.827130 -75.555600 5.348090 -0.000007 -0.000001 -55.523700 27.194500 -31.983400 24.328600 0.000019 0.000005 10.167200 14.757100 -35.148500 22.291600 -0.000001 0.000005 14.414700 5.243760 1.597260 12.994500 -0.242716 -4.980390 88.453700 7.756230 -78.689000 -5.348130 -0.000001 -0.000004 -64.872500 27.142700 -5.244850 -24.328900 0.000322 -0.000009 0.559271 1.325950 -22.911300 -22.291500 -0.000108 -0.000004 14.844500 5.392440 -2.693470 -2.192480 -6.469440 -0.000000 -177.174000 -5.986700 1.592230 39.081100 -0.000007 -0.000012 0.011828 -0.018655 32.373400 40.985400 -0.000006 -0.000013 4.606290 6.464840 -65.725900 11.754300 -0.000000 0.000003 -0.062588 -0.340108 -30.632200 -2.192510 6.469440 -0.000001 -173.631000 12.980100 157.006000 -39.081100 -0.002282 -0.040193 0.022206 -0.021921 40.811400 -40.985400 0.000008 0.000006 6.394290 1.888430 -64.941700 -11.754300 -0.000006 -0.000006 -0.024737 -0.192243 -24.437600
0.000000 0.000000 0.000000 0.000000 0.000000 -0.000000 133.333000 90.497000 -53.770400 87.925500 3.627840 -2.207900 15.735700 0.000005 -0.000001 62.475700 84.949000 -62.066900 8.984550 -0.406207 -0.000000 1.214390 -4.689710 0.867054 16.377300 -0.000001 -0.000001 -3.174200 -6.304240 -1.729000 6.456720 -0.000001 -0.000000 -8.764670 -5.062070 -7.079580 12.994200 -0.242716 4.980390 -90.719100 2.800050 -75.589800 5.348090 -0.000007 -0.000001 -54.825800 28.430800 -32.511200 24.328600 0.000019 0.000005 10.467200 13.050700 -39.289200 22.291600 -0.000001 0.000005 14.744600 5.258110 1.217680 12.994500 -0.242716 -4.980390 88.428700 7.839700 -78.629200 -5.348130 -0.000001 -0.000004 -64.718400 26.474100 -4.428710 -24.328900 0.000322 -0.000009 0.585284 1.435350 -22.223400 -22.291500 -0.000108 -0.000004 14.709700 5.389780 -2.608260 -2.192480 -6.469440 -0.000000 -176.846000 -5.750420 2.090120 39.081100 -0.000007 -0.000012 0.012597 -0.018994 33.551100 40.985400 -0.000006 -0.000013 4.958990 7.444060 -64.954800 11.754300 -0.000000 0.000003 -0.093441 -0.427996 -34.409200 -2.192510 6.469440 -0.000001 -171.313000 14.612000 155.113000 -39.081100 -0.002282 -0.040193 0.012061 -0.013015 33.966000 -40.985400 0.000008 0.000006 5.425280 5.171460 -64.765400 -11.754300 -0.000006 -0.000006 -0.026402 -0.200474 -24.778000
0.000000 0.000000 0.000000 0.000000 0.000000 -0.000000 133.490000 89.720400 -50.526700 87.468500 4.659770 -2.301140 15.735700 0.000005 -0.000001 62.785800 84.892500 -62.047100 8.984550 -0.406207 -0.000000 1.354240 -4.710620 1.532560 16.377300 -0.000001 -0.000001 -3.317620 -6.218210 -1.615730 6.456720 -0.000001 -0.000000 -9.480890 -4.766180 -6.764950 12.994200 -0.242716 4.980390 -90.787000 3.047920 -75.515400 5.348090 -0.000007 -0.000001 -54.144900 29.858700 -32.747500 24.328600 0.000019 0.000005 11.262700 12.301900 -43.065400 22.291600 -0.000001 0.000005 14.884800 5.275890 0.738224 12.994500 -0.242716 -4.980390 88.331300 8.264940 -78.543400 -5.348130 -0.000001 -0.000004 -64.330000 25.527100 -3.797620 -24.328900 0.000322 -0.000009 0.566429 1.467110 -21.150200 -22.291500 -0.000108 -0.000004 14.791900 5.388130 -2.555860 -2.192480 -6.469440 -0.000000 -175.476000 -6.478250 2.379830 39.081100 -0.000007 -0.000012 0.014291 -0.019435 36.325300 40.985400 -0.000006 -0.000013 5.150780 9.124810 -64.002900 11.754300 -0.000000 0.000003 -0.145639 -0.546067 -39.644900 -2.192510 6.469440 -0.000001 -169.150000 13.290700 152.419000 -39.081100 -0.002282 -0.040193 0.037421 -0.051881 33.336000 -40.985400 0.000008 0.000006 12.326100 3.196300 -60.003300 -11.754300 -0.000006 -0.000006 -0.011324 -0.113274 -21.190000
0.000000 0.000000 0.000000 0.000000 0.000000 -0.000000 134.058000 88.387600 -46.272100 88.682500 6.042980 -1.223370 15.735700 0.000005 -0.000001 62.730100 84.533100 -62.192400 8.984550 -0.406207 -0.000000 1.983920 -5.033530 1.162260 16.377300 -0.000001 -0.000001 -3.446990 -6.029640 -1.672490 6.456720 -0.000001 -0.000000 -9.382590 -4.600560 -6.609800 12.994200 -0.242716 4.980390 -90.728500 2.813000 -75.474700 5.348090 -0.000007 -0.000001 -54.301500 31.609000 -31.994200 24.328600 0.000019 0.000005 12.664000 12.251000 -46.638400 22.291600 -0.000001 0.000005 14.603400 5.288090 0.403629 12.994500 -0.242716 -4.980390 88.303300 8.401380 -78.539400 -5.348130 -0.000001 -0.000004 -64.493400 24.497400 -3.058860 -24.328900 0.000322 -0.000009 0.555159 1.578600 -19.415800 -22.291500 -0.000108 -0.000004 14.728600 5.389510 -2.599710 -2.192480 -6.469440 -0.000000 -175.581000 -6.803570 3.438220 39.081100 -0.000007 -0.000012 0.021304 -0.024616 40.872500 40.985400 -0.000006 -0.000013 4.917970 11.009800 -61.432300 11.754300 -0.000000 0.000003 -0.233602 -0.698217 -46.775000 -2.192510 6.469440 -0.000001 -172.017000 9.124970 152.458000 -39.081100 -0.002282 -0.040193 0.049825 -0.051869 41.907600 -40.985400 0.000008 0.000006 12.124900 -2.137560 -65.262100 -11.754300 -0.000006 -0.000006 -0.007517 -0.084042 -19.994900
0.000000 0.000000 0.000000 0.000000 0.000000 -0.000000 134.465000 87.163500 -41.872200 88.686900 7.918020 0.400209 15.735700 0.000005 -0.000001 63.402000 84.040100 -62.570600 8.984550 -0.406207 -0.000000 2.943320 -5.366650 1.800020 16.377300 -0.000001 -0.000001 -3.355150 -6.075130 -1.632680 6.456720 -0.000001 -0.000000 -9.529360 -4.347630 -6.966980 12.994200 -0.242716 4.980390 -90.862700 3.351350 -75.555800 5.348090 -0.000007 -0.000001 -54.118000 33.690000 -30.833700 24.328600 0.000019 0.000005 14.173700 12.683500 -48.996200 22.291600 -0.000001 0.000005 14.626300 5.308490 -0.167551 12.994500 -0.242716 -4.980390 88.130100 9.075560 -78.306300 -5.348130 -0.000001 -0.000004 -63.810900 24.016100 -2.994540 -24.328900 0.000322 -0.000009 0.457511 1.523990 -16.748900 -22.291500 -0.000108 -0.000004 14.626900 5.382760 -2.384850 -2.192480 -6.469440 -0.000000 -173.747000 -7.205240 2.681870 39.081100 -0.000007 -0.000012 0.041582 -0.037214 48.170300 40.985400 -0.000006 -0.000013 3.866570 13.576300 -55.387800 11.754300 -0.000000 0.000003 -0.305260 -0.796601 -51.711600 -2.192510 6.469440 -0.000001 -172.686000 9.537080 154.645000 -39.081100 -0.002282 -0.040193 0.073034 -0.064492 47.253900 -40.985400 0.000008 0.000006 11.453900 -4.508730 -70.897500 -11.754300 -0.000006 -0.000006 -0.563300 -0.690197 -18.052400
0.000000 0.000000 0.000000 0.000000 0.000000 -0.000000 134.786000 86.223900 -37.621000 88.240500 10.434900 2.119700 15.735700 0.000005 -0.000001 63.974500 83.557900 -62.635700 8.984550 -0.406207 -0.000000 3.895670 -5.690590 2.870100 16.377300 -0.000001 -0.000001 -3.173920 -6.424590 -1.414310 6.456720 -0.000001 -0.000000 -9.476550 -4.336650 -6.861650 12.994200 -0.242716 4.980390 -90.976700 3.846050 -75.739300 5.348090 -0.000007 -0.000001 -55.125400 36.126600 -29.511800 24.328600 0.000019 0.000005 15.208400 13.715300 -48.906900 22.291600 -0.000001 0.000005 14.837300 5.330660 -0.804935 12.994500 -0.242716 -4.980390 87.885900 9.876190 -77.854200 -5.348130 -0.000001 -0.000004 -62.661400 23.410400 -3.210810 -24.328900 0.000322 -0.000009 0.553675 2.254860 -13.832200 -22.291500 -0.000108 -0.000004 13.966100 5.372560 -2.064960 -2.192480 -6.469440 -0.000000 -171.861000 -5.439150 -0.367314 39.081100 -0.000007 -0.000012 0.061716 -0.039863 57.138100 40.985400 -0.000006 -0.000013 -0.420954 14.225600 -46.606100 11.754300 -0.000000 0.000003 -0.184011 -0.617873 -42.946200 -2.192510 6.469440 -0.000001 -172.892000 13.361400 158.224000 -39.081100 -0.002282 -0.040193 0.100323 -0.081280 50.060900 -40.985400 0.000008 0.000006 11.583300 -4.456450 -76.081800 -11.754300 -0.000006 -0.000006 -1.066760 -1.307280 -17.603000
